<svg width="18" height="24" viewBox="0 0 18 24" fill="none" xmlns="http://www.w3.org/2000/svg">
<path d="M3.19403 0H0V3.08118H3.19403V0Z" fill="#BE2084"/>
<path d="M3.19403 3.49136H0V6.53836H3.19403V3.49136Z" fill="#BE2084"/>
<path d="M3.19403 6.94852H0V10.0297H3.19403V6.94852Z" fill="#BE2084"/>
<path d="M3.19403 10.4399H0V13.4869H3.19403V10.4399Z" fill="#BE2084"/>
<path d="M3.19403 13.897H0V16.944H3.19403V13.897Z" fill="#BE2084"/>
<path d="M3.19403 17.3542H0V20.4354H3.19403V17.3542Z" fill="#BE2084"/>
<path d="M3.19403 20.8407H0V23.8877H3.19403V20.8407Z" fill="#BE2084"/>
<path d="M6.78369 0H3.62427V3.08118H6.78369V0Z" fill="#BE2084"/>
<path d="M6.78369 3.49136H3.62427V6.53836H6.78369V3.49136Z" fill="#BE2084"/>
<path d="M6.78369 6.94852H3.62427V10.0297H6.78369V6.94852Z" fill="#BE2084"/>
<path d="M6.78369 10.4399H3.62427V13.4869H6.78369V10.4399Z" fill="#BE2084"/>
<path d="M6.78369 13.897H3.62427V16.944H6.78369V13.897Z" fill="#BE2084"/>
<path d="M6.78369 17.3542H3.62427V20.4354H6.78369V17.3542Z" fill="#BE2084"/>
<path d="M6.78369 20.8407H3.62427V23.8877H6.78369V20.8407Z" fill="#BE2084"/>
<path d="M10.4077 6.94852H7.20874V10.0297H10.4077V6.94852Z" fill="#BE2084"/>
<path d="M10.4077 20.8407H7.20874V23.8877H10.4077V20.8407Z" fill="#BE2084"/>
<path d="M13.9875 6.94852H10.8281V10.0297H13.9875V6.94852Z" fill="#BE2084"/>
<path d="M13.9875 10.4399H10.8281V13.4869H13.9875V10.4399Z" fill="#BE2084"/>
<path d="M13.9875 13.897H10.8281V16.944H13.9875V13.897Z" fill="#BE2084"/>
<path d="M13.9875 17.3542H10.8281V20.4354H13.9875V17.3542Z" fill="#BE2084"/>
<path d="M13.9875 20.8407H10.8281V23.8877H13.9875V20.8407Z" fill="#BE2084"/>
<path d="M17.5771 10.4399H14.4177V13.4869H17.5771V10.4399Z" fill="#BE2084"/>
<path d="M17.5771 13.897H14.4177V16.944H17.5771V13.897Z" fill="#BE2084"/>
<path d="M17.5771 17.3542H14.4177V20.4354H17.5771V17.3542Z" fill="#BE2084"/>
</svg>
